<svg width="101" height="96" viewBox="0 0 101 96" fill="none" xmlns="http://www.w3.org/2000/svg">
<path d="M62.2947 41.0336C62.5164 41.0154 62.7261 41.0018 62.9237 40.9927C63.1211 40.9836 63.3171 40.979 63.5116 40.979C63.9309 40.979 64.3038 41.0177 64.6305 41.0952C64.9571 41.1727 65.2336 41.2843 65.46 41.4302C65.6863 41.576 65.8588 41.7515 65.9773 41.9566C66.0958 42.1617 66.1551 42.3934 66.1551 42.6517C66.1551 42.8644 66.1193 43.0535 66.0479 43.2191C65.9765 43.3847 65.8831 43.529 65.7676 43.6521C65.6521 43.7751 65.52 43.877 65.3711 43.9574C65.2222 44.038 65.0733 44.0995 64.9244 44.142C65.131 44.1755 65.3271 44.2331 65.5124 44.3152C65.6977 44.3972 65.861 44.5029 66.0024 44.632C66.1437 44.7612 66.256 44.9115 66.3396 45.0832C66.4231 45.2549 66.465 45.4486 66.465 45.6643C66.465 45.9621 66.3981 46.228 66.2644 46.4619C66.1307 46.6959 65.9347 46.8949 65.6765 47.0589C65.4181 47.223 65.1014 47.3476 64.7262 47.4327C64.3509 47.5177 63.9217 47.5603 63.4387 47.5603C63.229 47.5603 63.03 47.5549 62.8416 47.5443C62.6532 47.5337 62.4708 47.5223 62.2947 47.5101V41.0336ZM63.074 43.8776H63.6723C63.9341 43.8776 64.167 43.8519 64.3711 43.8001C64.575 43.7485 64.7479 43.6733 64.8894 43.5746C65.031 43.4759 65.1391 43.3551 65.2137 43.2122C65.2883 43.0695 65.3255 42.9099 65.3255 42.7337C65.3255 42.5635 65.286 42.4116 65.2068 42.2779C65.1275 42.1442 65.0142 42.0311 64.8666 41.9383C64.7189 41.8457 64.537 41.7751 64.3208 41.7264C64.1046 41.6778 63.8595 41.6535 63.5856 41.6535C63.5064 41.6535 63.4234 41.6543 63.3366 41.6558C63.2499 41.6574 63.1624 41.6611 63.074 41.6672L63.074 43.8776ZM63.074 46.8675C63.1653 46.8736 63.2589 46.8782 63.3549 46.8812C63.4507 46.8842 63.5474 46.8857 63.6448 46.8857C63.9582 46.8857 64.2383 46.8591 64.4849 46.806C64.7314 46.7528 64.9399 46.6738 65.1104 46.569C65.2808 46.4642 65.411 46.3373 65.5007 46.1884C65.5905 46.0396 65.6355 45.8694 65.6355 45.6779C65.6355 45.4987 65.592 45.3384 65.5053 45.1971C65.4186 45.0558 65.2922 44.9366 65.1264 44.8393C64.9604 44.7421 64.7573 44.6677 64.5169 44.616C64.2764 44.5644 64.0024 44.5385 63.695 44.5385H63.0741L63.074 46.8675Z" fill="white"/>
<path d="M72.381 45.3818C72.381 45.7464 72.3226 46.0677 72.2057 46.3457C72.0889 46.6237 71.9265 46.8546 71.7185 47.0385C71.5106 47.2223 71.2632 47.3605 70.9763 47.4532C70.6895 47.5458 70.3745 47.5922 70.0315 47.5922C69.7037 47.5922 69.3987 47.5474 69.1164 47.4578C68.8341 47.3682 68.5905 47.2322 68.3856 47.0499C68.1806 46.8676 68.0205 46.6419 67.9051 46.3731C67.7898 46.1041 67.7322 45.7905 67.7322 45.4319V41.0337H68.5435V45.3863C68.5435 45.6506 68.5837 45.8778 68.6642 46.0677C68.7447 46.2576 68.8557 46.4134 68.997 46.5348C69.1382 46.6564 69.3023 46.7461 69.4892 46.8038C69.676 46.8615 69.8743 46.8904 70.084 46.8904C70.2906 46.8904 70.4858 46.8615 70.6696 46.8038C70.8534 46.7461 71.0145 46.6579 71.1528 46.5394C71.291 46.4209 71.4004 46.2705 71.4809 46.0882C71.5614 45.9059 71.6017 45.6887 71.6017 45.4365V41.0337H72.381V45.3818Z" fill="white"/>
<path d="M77.4991 41.7174H74.8557V43.8686H77.2667V44.5523H74.8557V46.8266H77.4991V47.5102H74.0444V41.0337H77.4991V41.7174Z" fill="white"/>
<path d="M84.0575 47.5102H83.0776L80.0012 42.6563C79.9465 42.5682 79.8956 42.4816 79.8485 42.3964C79.8014 42.3114 79.7581 42.2248 79.7186 42.1367C79.7277 42.2248 79.733 42.3114 79.7346 42.3964C79.7361 42.4816 79.7369 42.5682 79.7369 42.6563V47.5102H78.9712V41.0337H79.9511L83.0321 45.8877C83.0868 45.9758 83.1362 46.0616 83.1803 46.1452C83.2242 46.2287 83.266 46.3131 83.3056 46.3981C83.3025 46.3131 83.2994 46.228 83.2964 46.1429C83.2934 46.0579 83.2919 45.9728 83.2919 45.8877V41.0337H84.0575L84.0575 47.5102Z" fill="white"/>
<path d="M88.2944 41.0337C88.7383 42.1002 89.1345 43.1797 89.4826 44.2719C89.8309 45.3643 90.119 46.4437 90.3471 47.5102H89.5176C89.4658 47.2641 89.411 47.0157 89.3532 46.765C89.2955 46.5143 89.2315 46.2614 89.1617 46.0062H86.4306C86.361 46.2614 86.2967 46.5143 86.2377 46.765C86.1787 47.0157 86.1234 47.2641 86.072 47.5102H85.2607C85.4884 46.4437 85.7768 45.3643 86.126 44.2719C86.475 43.1797 86.8696 42.1002 87.3099 41.0337H88.2944ZM88.9791 45.3316C88.8118 44.7391 88.6283 44.1519 88.4291 43.5701C88.2298 42.9883 88.0162 42.4192 87.788 41.8632C87.567 42.4192 87.356 42.9883 87.1547 43.5701C86.9535 44.1519 86.7696 44.7391 86.6031 45.3316H88.9791Z" fill="white"/>
<path d="M68.6741 52.2344C68.7745 52.8209 68.8613 53.3882 68.9343 53.9367C69.0074 54.4852 69.0712 55.0253 69.1261 55.557C69.1808 56.0887 69.2265 56.6151 69.263 57.1362C69.2995 57.6573 69.33 58.1822 69.3544 58.7109H68.543C68.5215 58.2278 68.4946 57.7508 68.4622 57.2798C68.4299 56.8088 68.3914 56.3394 68.3468 55.8714C68.3023 55.4036 68.2515 54.9379 68.1946 54.4745C68.1376 54.0112 68.0722 53.5455 67.9984 53.0776L66.1708 58.7109H65.2911L63.4589 53.0593C63.3863 53.5273 63.3213 53.9937 63.2638 54.4585C63.2063 54.9234 63.1556 55.3906 63.1117 55.86C63.0678 56.3295 63.03 56.8005 62.9983 57.2729C62.9665 57.7455 62.94 58.2248 62.9189 58.7109H62.1304C62.1516 58.1822 62.1804 57.6574 62.2168 57.1362C62.2533 56.6151 62.298 56.0887 62.3511 55.557C62.4041 55.0253 62.4678 54.4852 62.5422 53.9367C62.6165 53.3883 62.7037 52.8209 62.8038 52.2344H63.9512L65.7423 57.7492L67.5335 52.2344L68.6741 52.2344Z" fill="white"/>
<path d="M74.4091 52.9181H71.7656V55.0693H74.1766V55.7529H71.7656V58.0272H74.4091V58.7109H70.9543V52.2344H74.4091V52.9181Z" fill="white"/>
<path d="M75.8127 57.6126C76.0345 57.7676 76.2723 57.8877 76.526 57.9727C76.7797 58.0578 77.0372 58.1003 77.2986 58.1003C77.4839 58.1003 77.654 58.0775 77.809 58.0319C77.9639 57.9864 78.0976 57.9196 78.2101 57.8314C78.3224 57.7433 78.4099 57.6362 78.4721 57.5101C78.5344 57.384 78.5656 57.2389 78.5656 57.0749C78.5656 56.8865 78.523 56.7232 78.4379 56.5849C78.3529 56.4467 78.2397 56.3259 78.0984 56.2225C77.9571 56.1193 77.7968 56.0251 77.6176 55.94C77.4383 55.855 77.256 55.7684 77.0706 55.6802C76.8853 55.5921 76.703 55.4971 76.5238 55.3953C76.3445 55.2936 76.1849 55.1736 76.0452 55.0353C75.9054 54.897 75.793 54.736 75.7079 54.5522C75.6228 54.3683 75.5803 54.1488 75.5803 53.8936C75.5803 53.6201 75.6297 53.3748 75.7284 53.1575C75.8271 52.9403 75.9654 52.7564 76.1431 52.606C76.3209 52.4556 76.5306 52.3417 76.7721 52.2642C77.0137 52.1867 77.2788 52.1479 77.5674 52.1479C77.8683 52.1479 78.1455 52.189 78.3993 52.271C78.6529 52.3531 78.8952 52.4716 79.1262 52.6265L78.9071 53.2783C78.6909 53.1324 78.4718 53.023 78.2496 52.9501C78.0275 52.8772 77.7992 52.8407 77.5649 52.8407C77.3975 52.8407 77.2422 52.8628 77.0992 52.9068C76.9561 52.9509 76.8321 53.0147 76.7271 53.0982C76.6221 53.1819 76.5399 53.2836 76.4806 53.4036C76.4212 53.5237 76.3916 53.6596 76.3916 53.8115C76.3916 53.9969 76.4341 54.1556 76.5193 54.2878C76.6045 54.42 76.7171 54.537 76.8571 54.6387C76.9971 54.7406 77.1568 54.8324 77.3364 54.9145C77.5159 54.9965 77.6986 55.0816 77.8842 55.1697C78.0698 55.2579 78.2524 55.3536 78.432 55.4568C78.6115 55.5602 78.7713 55.6825 78.9113 55.8237C79.0513 55.965 79.1638 56.1307 79.249 56.3205C79.3342 56.5105 79.3768 56.736 79.3768 56.9973C79.3768 57.2799 79.3244 57.5322 79.2196 57.7539C79.1148 57.9757 78.9697 58.1641 78.7844 58.3191C78.599 58.4741 78.3794 58.5918 78.1258 58.6723C77.872 58.7527 77.5963 58.7931 77.2986 58.7931C76.9643 58.7931 76.6559 58.7498 76.3733 58.6632C76.0908 58.5766 75.837 58.4513 75.6122 58.2872L75.8127 57.6126Z" fill="white"/>
<path d="M83.1718 52.2344C83.6157 53.3009 84.0119 54.3803 84.3601 55.4726C84.7084 56.5649 84.9965 57.6443 85.2245 58.7108H84.3951C84.3433 58.4648 84.2885 58.2163 84.2307 57.9657C84.1729 57.715 84.109 57.4621 84.0391 57.2068H81.3081C81.2385 57.4621 81.1742 57.715 81.1152 57.9657C81.0561 58.2163 81.0009 58.4648 80.9495 58.7108H80.1382C80.3659 57.6443 80.6543 56.5649 81.0034 55.4726C81.3525 54.3803 81.7471 53.3009 82.1873 52.2344H83.1718ZM83.8566 56.5323C83.6893 55.9398 83.5058 55.3526 83.3066 54.7708C83.1073 54.1889 82.8937 53.6199 82.6655 53.0639C82.4445 53.6199 82.2334 54.1889 82.0322 54.7708C81.8309 55.3526 81.6471 55.9398 81.4806 56.5323H83.8566Z" fill="white"/>
<path d="M63.2297 37.915H64.7209V38.6035H62.4153V34.4404H63.2297V37.915ZM67.2112 34.4404C67.4846 35.126 67.7288 35.8203 67.9436 36.5234C68.1584 37.2246 68.3333 37.918 68.468 38.6035H67.6331C67.6077 38.4668 67.5803 38.3291 67.551 38.1904C67.5237 38.0498 67.4924 37.9082 67.4573 37.7656H65.9368C65.9016 37.9082 65.8694 38.0498 65.8401 38.1904C65.8108 38.3291 65.7834 38.4668 65.7581 38.6035H64.9436C65.0784 37.918 65.2542 37.2246 65.4709 36.5234C65.6877 35.8203 65.9309 35.126 66.2004 34.4404H67.2112ZM67.2903 37.1035C67.2043 36.7891 67.1116 36.4785 67.012 36.1719C66.9143 35.8633 66.8079 35.5596 66.6926 35.2607C66.5833 35.5596 66.4778 35.8633 66.3762 36.1719C66.2747 36.4785 66.1819 36.7891 66.0979 37.1035H67.2903Z" fill="white"/>
<path d="M91.7982 9.16569C94.3666 11.7313 98.3018 19.5965 99.4486 23.1404C102.914 33.8493 99.684 51.4037 98.3256 62.6833C97.2547 71.5758 96.6863 81.82 90.4338 88.9211C87.0716 92.7396 79.7317 94.6072 74.7874 94.9787C65.1861 95.7002 54.5577 94.7153 44.9073 94.3505C31.1246 92.2939 16.802 91.6852 7.55211 79.8042C-0.806994 69.0673 -0.15561 57.0987 0.154868 44.0934C0.46445 31.1254 2.77688 16.6011 11.4893 6.52009C16.7217 0.46581 20.7336 1.78946 27.9186 1.24523C29.7723 1.10482 31.5833 0.602976 33.4264 0.461961C38.719 0.0569815 43.9996 -0.159648 49.3164 0.139425C53.1042 0.352486 56.6604 0.855097 60.4771 0.901181C67.8154 0.989804 73.7789 0.57256 80.8401 3.21677C84.2395 4.48977 89.2595 6.62968 91.7982 9.16569ZM12.5608 80.2813C17.1497 84.7931 22.8609 87.3316 29.0706 88.6585C34.7822 89.9307 40.5827 90.7126 46.3595 91.2793C52.8283 91.886 59.4015 92.1856 65.9696 92.2484C70.8132 92.2474 75.6048 92.2803 80.3309 91.0955C93.8748 88.1332 94.6404 74.2797 96.0484 62.8948C97.9064 46.1047 102.95 26.3748 91.0547 12.2156C88.533 9.45763 85.1215 7.61217 81.6476 6.2748C76.0138 4.04061 70.092 3.46599 64.0495 3.43024C59.024 3.40367 54.0036 3.00687 48.9929 2.71014C43.0842 2.37186 37.1264 2.78627 31.2301 3.27123C27.3091 3.57899 23.2334 3.29316 19.394 4.28027C13.9681 5.72098 10.7351 11.1491 8.39757 15.8466C3.24863 27.4979 3.19209 40.7904 3.24113 53.3102C3.24664 63.342 4.82621 73.1359 12.5421 80.2634L12.5608 80.2813Z" fill="white"/>
<path d="M58.5368 50.5172C57.5896 49.0265 56.2216 48.2513 54.864 47.2339C52.7293 45.6348 50.7763 43.7831 48.5553 42.3003C47.6762 41.7133 47.0782 41.4329 46.3407 40.6154C45.942 40.174 45.6486 39.8318 45.5038 39.239C45.2571 38.2327 45.1765 37.0926 45.0935 36.0661C45.0655 35.7201 45.0032 35.3779 44.9208 35.0442C44.9045 34.978 44.9285 34.8962 44.9032 34.8157C44.8357 34.604 43.9969 34.4722 43.8294 34.6599L42.7886 36.046C42.5114 35.8064 42.1491 35.5415 41.7557 35.6428C41.6927 35.6591 41.27 35.8655 41.2213 35.9071C40.9363 36.1466 40.8961 36.7946 40.798 37.1445C40.5325 38.0866 40.1507 38.5547 39.4385 39.1923C38.0173 40.4648 36.5032 41.1024 34.7392 41.7309C33.8673 42.0412 32.9823 42.0263 32.0779 42.0905C31.517 42.1308 31.0222 42.236 30.4249 42.2645C29.2913 42.3184 28.0103 42.3554 26.8761 42.3028C26.3028 42.2762 25.7302 42.158 25.1575 42.1243C23.5013 42.0269 21.8438 42.121 20.207 42.3054C19.3974 42.397 18.2151 42.5619 17.5178 42.9891C17.3581 43.0871 17.2341 43.2325 17.0906 43.3345C16.9127 43.4604 16.4076 43.7072 16.3628 43.9071C16.305 44.1636 16.3018 44.5233 16.3985 44.77C16.5206 45.0816 16.7004 45.1277 17.025 45.0608C17.6139 44.9407 18.2982 44.5765 18.8936 44.3999C20.4433 43.9389 22.1372 43.3819 23.7513 43.2501C24.4505 43.193 25.2238 43.4903 25.9042 43.626C27.015 43.8467 28.1739 44.0564 29.3024 44.1279C30.1016 44.1778 30.6567 44.0233 31.4105 43.9526C31.689 43.9266 31.9987 43.948 32.2876 43.9168C32.5311 43.8909 32.807 43.7993 33.0375 43.7844C33.1011 43.7805 33.1394 43.7649 33.1836 43.8292C32.6869 44.1006 32.213 44.3135 31.6455 44.3986C30.3444 44.594 28.9589 44.7336 27.652 44.7239C26.5593 44.7154 25.4711 44.6771 24.3817 44.6213C23.9382 44.5986 23.4033 44.4583 22.9741 44.4479C22.2008 44.4284 20.979 44.7739 20.1914 44.9602C19.1338 45.2101 18.1385 45.6464 17.151 46.1003C16.6231 46.3431 15.2701 47.1793 15.1695 47.7727C15.1253 48.0305 15.1292 48.4538 15.4071 48.572C15.9551 48.8057 16.5186 48.3707 16.9991 48.1616C18.2729 47.6091 19.4896 46.9346 20.8452 46.5976C22.2216 46.2554 23.7149 46.1736 25.1225 46.097C26.0412 46.0464 26.6469 46.0964 27.5435 46.1321C28.7862 46.1814 29.9802 46.0737 31.2345 46.2353C31.389 46.2555 31.7702 46.1879 31.7338 46.4593C31.7104 46.6301 31.1891 46.869 31.0294 46.9443C28.8115 47.9954 26.5898 47.8312 24.2434 48.063C23.4825 48.1383 22.8689 48.3908 22.1691 48.4837C20.0927 48.759 17.8697 48.7778 16.0771 50.0153C15.5298 50.3931 14.5644 51.33 14.6377 52.0468C14.6741 52.4045 14.7546 52.6681 15.1526 52.7259C15.6532 52.7986 15.6363 52.5733 15.9525 52.3143C17.1172 51.3618 18.2579 50.5996 19.7486 50.2431C20.3979 50.088 21.1497 50.0698 21.8139 49.9906C22.1385 49.9516 22.4885 49.8452 22.8027 49.8198C24.42 49.6906 26.0126 49.864 27.6052 49.4225C28.0584 49.2972 28.4142 49.0894 28.9271 49.1927C29.031 49.3829 29.0232 49.427 28.8966 49.59C28.6979 49.8458 28.0422 50.4457 27.774 50.6801C26.5722 51.7338 25.1238 51.7046 23.6156 51.8968C23.2319 51.9461 22.8637 52.0734 22.482 52.1338C21.8821 52.2286 21.2549 52.2007 20.6693 52.289C19.9694 52.3935 19.102 52.5766 18.406 52.7304C17.7515 52.8759 17.2847 53.1732 16.6952 53.444C16.3478 53.6037 16.2063 53.5816 15.8823 53.8601C15.4629 54.2205 15.263 54.6529 15.2298 55.2106C15.1889 55.8949 15.4168 55.9261 15.9927 55.6923C16.39 55.5307 16.7991 55.308 17.199 55.1424C18.9098 54.4347 20.8186 53.9854 22.6164 53.5329C23.0922 53.4135 23.8558 53.1083 24.3135 53.1193C24.7115 53.1291 25.1251 53.4563 24.8738 53.8575C24.8011 53.9731 24.0291 54.5483 23.8707 54.6464C23.7019 54.7516 23.4455 54.8749 23.25 54.9041C22.3216 55.0424 21.3815 55.0963 20.4524 55.2333C19.7356 55.3398 18.9857 55.6293 18.2956 55.852C17.6256 56.0676 16.9789 56.3247 16.3595 56.6565C15.944 56.8792 15.7518 57.094 15.6973 57.5751C15.657 57.9374 15.6726 58.3387 16.0505 58.5029C16.4258 58.6665 16.468 58.4893 16.7647 58.3614C17.1815 58.1809 17.6204 58.1822 18.0495 58.0653C18.7143 57.8829 19.3818 57.5927 20.0784 57.4239C20.3557 57.3563 20.6738 57.309 20.9575 57.2674C20.8264 57.4037 20.6329 57.4661 20.4842 57.5842C20.3057 57.7258 19.611 58.4809 19.5675 58.6698C19.4207 59.3061 19.7577 59.545 20.1882 59.8806C20.7121 60.289 20.9231 60.3507 21.5094 60.5974C21.9243 60.7727 22.2586 61.0116 22.706 61.1577C23.5669 61.4395 24.0687 61.5667 24.868 62.0517C25.1705 62.2355 25.4328 62.527 25.7471 62.6834C26.0061 62.812 26.3022 62.8568 26.5625 62.9568C27.5474 63.3353 27.9909 63.5164 29.0511 63.7008C29.638 63.8034 30.0094 63.9794 30.5496 64.1345C31.3624 64.3689 32.1876 64.3507 33.0012 64.5286C33.4452 64.626 33.9062 64.6806 34.3458 64.8007C34.6042 64.8714 34.9599 65.0532 35.2125 65.0928C35.5417 65.1441 35.9851 65.1078 36.326 65.1344C36.6753 65.0805 36.9226 64.5195 36.9434 64.2047C36.9934 63.4359 36.735 62.466 36.6961 61.6771C36.5454 58.6432 36.7772 56.0208 38.2724 53.344C38.5581 52.8317 38.9217 52.3818 39.4261 52.0734C39.8521 52.3643 40.178 52.798 40.6344 53.0667C41.3992 53.5173 42.638 53.5887 43.5307 53.6485C45.3174 53.7666 47.2009 53.6855 48.9714 53.4329C49.8713 53.3044 50.729 52.9551 51.6288 53.3148C51.7541 53.3654 51.8866 53.4946 52.0138 53.5621C52.5891 53.8686 53.2377 54.2335 53.8233 54.4925C54.8147 54.9307 55.7788 54.5074 56.6008 53.9302C56.9864 53.6602 57.4201 53.242 57.7603 52.9116C58.4485 52.2441 59.188 51.5417 58.5368 50.5172ZM45.894 43.6663C46.14 43.2404 46.9471 43.2469 47.6969 43.6793C47.6684 43.6988 47.6392 43.7202 47.6112 43.7423C47.4807 43.8429 47.3652 43.9578 47.3399 43.9526C47.2535 43.8007 47.2691 43.5734 47.0717 43.502C46.8854 43.6221 46.8561 43.8026 46.8711 44.013C46.6783 43.8948 46.4724 43.8689 46.3796 44.1136C46.3173 44.2792 46.5056 44.3727 46.6211 44.4298C46.6413 44.4402 46.6821 44.4356 46.6594 44.4811C46.6179 44.5629 46.3458 44.6564 46.2459 44.7888C45.8745 44.4058 45.72 43.9682 45.894 43.6663ZM46.8068 45.2212C46.7335 45.1784 46.6627 45.1336 46.5958 45.0868C46.751 45.042 46.8873 44.9349 46.901 44.9499C46.9126 45.0407 46.8594 45.1531 46.8691 45.2459C46.8698 45.2498 46.8698 45.2531 46.8711 45.257C46.8497 45.2453 46.8282 45.2336 46.8068 45.2212ZM48.6098 45.2342C48.3988 45.6004 47.7722 45.6472 47.1243 45.3777C47.1282 45.3764 47.1321 45.3745 47.1353 45.3719C47.3055 45.2641 47.3886 44.8622 47.4301 44.8596C47.5794 44.9583 47.7807 45.0232 47.9547 44.946C48.0014 44.7843 47.8677 44.6726 47.8385 44.5272C47.93 44.5233 48.0975 44.459 48.1112 44.359C48.1326 44.2058 47.9787 44.1195 47.9657 44.0545C47.9625 44.0383 47.9683 44.0175 47.9794 43.9922C47.9904 43.965 48.006 43.9325 48.019 43.8968C48.5579 44.3214 48.8175 44.8739 48.6098 45.2342Z" fill="white"/>
<path d="M37.9802 32.8154C37.5594 30.9183 36.0844 28.9693 36.3116 27.002C36.4148 26.1048 36.918 25.2575 37.427 24.5349C37.6218 24.2583 37.9964 24.011 37.7516 23.6292C37.6906 23.5344 37.5718 23.4429 37.453 23.4688C36.1681 23.7746 34.9728 24.346 33.8159 24.9634C30.9364 26.4995 31.646 28.9219 32.8511 31.3397C33.2965 32.2331 34.2801 34.6106 32.5336 34.7125C32.1285 34.7359 31.9239 34.66 31.6551 34.362C31.0598 33.701 30.5975 32.7531 30.1067 32.011C29.5717 31.2014 28.7881 30.4567 28.2011 29.6659C27.2123 28.3337 26.7364 27.3565 26.2729 25.762C26.1255 25.2569 26.0813 24.1064 25.2892 24.3596C24.999 25.0699 24.5348 25.6737 24.1401 26.3197C23.4921 27.3792 22.8753 28.4278 22.1728 29.4465C21.9781 29.7295 21.4216 30.6547 21.36 30.9514C21.2165 31.6364 22.0586 32.3077 22.5624 32.6343C23.8791 33.4868 25.6314 34.3379 27.0584 35.0242C27.2649 35.1235 28.4011 35.5786 28.4589 35.6962C28.6128 36.0071 27.9038 36.0519 27.7213 36.0474C26.6553 36.0214 25.6424 35.6079 24.5932 35.4864C24.4374 35.4683 24.2615 35.4988 24.1024 35.4851C23.9459 35.4715 23.7583 35.391 23.6103 35.3878C23.5122 35.3852 23.1344 35.4429 23.0519 35.4897C22.7526 35.6592 22.9721 36.2831 23.0402 36.5473C23.1629 37.018 23.5038 38.0529 23.82 38.4022C24.1316 38.7463 24.862 38.7762 25.2964 38.7528C26.3235 38.697 27.3577 38.6178 28.3868 38.5756C29.0016 38.5509 29.8671 38.5204 30.3384 38.9457C30.5884 39.171 31.0539 39.9546 31.2922 40.0299C31.8168 40.1942 32.0661 38.9996 32.1473 38.9996C32.4628 39.2164 32.5985 40.0345 33.0802 39.9338C33.4458 39.8572 33.5788 39.2703 33.8015 39.0022C34.2268 38.4912 34.5618 38.6658 35.1163 38.525C37.7711 37.8504 38.5216 35.2592 37.9802 32.8154ZM32.9563 27.4929C32.7569 27.1475 33.0881 26.5826 33.6964 26.2314C33.6964 26.2314 33.6971 26.2314 33.6971 26.2307C33.699 26.2586 33.7023 26.2878 33.7062 26.3171C33.7237 26.4495 33.7574 26.5774 33.7438 26.593C33.6016 26.5923 33.4484 26.4891 33.3186 26.5989C33.327 26.7787 33.4419 26.8722 33.5958 26.9469C33.4348 27.0345 33.3328 27.1689 33.4672 27.3332C33.5581 27.4442 33.7003 27.3494 33.7873 27.2916C33.8029 27.2819 33.8165 27.2514 33.8393 27.2858C33.8795 27.3481 33.8347 27.5773 33.8873 27.7007C33.4672 27.8065 33.0978 27.7376 32.9563 27.4929ZM34.4184 27.4825C34.3587 27.5169 34.2989 27.5481 34.2385 27.5753C34.2703 27.4481 34.2502 27.3098 34.2664 27.3059C34.3346 27.3345 34.3924 27.4176 34.4612 27.4487C34.4645 27.45 34.4671 27.4513 34.4703 27.452C34.4534 27.4624 34.4359 27.4721 34.4184 27.4825ZM34.658 27.3228V27.3124C34.6508 27.1494 34.4022 26.928 34.4177 26.8975C34.5476 26.8326 34.6748 26.7177 34.6911 26.5638C34.5963 26.4657 34.4638 26.5144 34.3496 26.4761C34.384 26.4099 34.4067 26.2664 34.3418 26.2158C34.2431 26.1392 34.1197 26.2119 34.0691 26.195C34.0561 26.1905 34.0444 26.1781 34.0308 26.16C34.0158 26.1411 34.0003 26.1178 33.9801 26.0937C34.4963 25.8873 34.991 25.9288 35.1592 26.221C35.3306 26.5177 35.1098 26.9767 34.658 27.3228Z" fill="white"/>
<path d="M48.1111 44.359C48.0975 44.4589 47.93 44.5232 47.8385 44.5271C47.8677 44.6725 48.0014 44.7842 47.9547 44.9459C47.7807 45.0231 47.5794 44.9582 47.4301 44.8595C47.3885 44.8621 47.3054 45.264 47.1353 45.3718C47.1321 45.3744 47.1282 45.3763 47.1243 45.3776C47.0399 45.3432 46.9555 45.303 46.8711 45.2569C46.8698 45.253 46.8698 45.2497 46.8691 45.2458C46.8594 45.153 46.9126 45.0407 46.9009 44.9498C46.8873 44.9348 46.751 45.042 46.5958 45.0868C46.4647 44.9939 46.3471 44.8933 46.2458 44.7887C46.3458 44.6563 46.6179 44.5628 46.6594 44.481C46.6822 44.4356 46.6413 44.4401 46.6211 44.4297C46.5056 44.3726 46.3173 44.2791 46.3796 44.1136C46.4724 43.8688 46.6783 43.8947 46.8711 44.0129C46.8561 43.8026 46.8854 43.6221 47.0717 43.502C47.2691 43.5734 47.2535 43.8006 47.3398 43.9525C47.3652 43.9577 47.4807 43.8428 47.6112 43.7422C47.6391 43.7201 47.6684 43.6987 47.6969 43.6792C47.8131 43.7461 47.9209 43.8194 48.019 43.8967C48.006 43.9324 47.9904 43.9649 47.9793 43.9921C47.9683 44.0175 47.9625 44.0382 47.9657 44.0545C47.9787 44.1194 48.1326 44.2057 48.1111 44.359Z" fill="white"/>
<path d="M48.1114 44.359C48.0977 44.459 47.9302 44.5232 47.8387 44.5271C47.8679 44.6726 48.0017 44.7842 47.9549 44.9459C47.7809 45.0231 47.5796 44.9582 47.4303 44.8595C47.3888 44.8621 47.3057 45.264 47.1356 45.3718C47.1323 45.3744 47.1284 45.3763 47.1245 45.3776C47.0706 45.4082 47.007 45.4082 46.9336 45.3556C46.8953 45.3283 46.8772 45.2945 46.8713 45.2569C46.87 45.253 46.87 45.2497 46.8694 45.2458C46.8596 45.153 46.9129 45.0407 46.9012 44.9498C46.8875 44.9348 46.7512 45.042 46.596 45.0868C46.511 45.1114 46.4194 45.1173 46.3409 45.0725C46.3052 45.0517 46.2156 44.9381 46.2097 44.8972C46.2071 44.8686 46.2149 44.8413 46.2292 44.8154C46.2344 44.8063 46.2396 44.7978 46.2461 44.7887C46.3461 44.6563 46.6181 44.5628 46.6597 44.481C46.6824 44.4356 46.6415 44.4401 46.6214 44.4297C46.5058 44.3726 46.3175 44.2791 46.3798 44.1136C46.4727 43.8688 46.6785 43.8948 46.8713 44.0129C46.8564 43.8026 46.8856 43.6221 47.0719 43.502C47.2693 43.5734 47.2537 43.8006 47.3401 43.9525C47.3654 43.9577 47.481 43.8428 47.6115 43.7422C47.6394 43.7201 47.6686 43.6987 47.6972 43.6792C47.8147 43.6 47.9315 43.5539 47.9926 43.6331C48.0653 43.7266 48.0484 43.8194 48.0192 43.8967C48.0062 43.9324 47.9906 43.9649 47.9796 43.9921C47.9686 44.0175 47.9627 44.0382 47.966 44.0545C47.9789 44.1194 48.1328 44.2057 48.1114 44.359Z" fill="white"/>
<path d="M34.4178 26.8971C34.4022 26.9276 34.6509 27.149 34.658 27.312V27.3224C34.5989 27.3678 34.5366 27.4107 34.4704 27.4516C34.4671 27.4509 34.4645 27.4496 34.4613 27.4483C34.3924 27.4171 34.3347 27.334 34.2665 27.3055C34.2503 27.3094 34.2704 27.4477 34.2386 27.5749C34.1204 27.6301 34.0022 27.6716 33.8873 27.7002C33.8347 27.5768 33.8795 27.3477 33.8393 27.2853C33.8166 27.2509 33.8029 27.2814 33.7874 27.2912C33.7004 27.349 33.5582 27.4437 33.4673 27.3327C33.3329 27.1684 33.4348 27.0341 33.5958 26.9464C33.442 26.8717 33.327 26.7782 33.3186 26.5984C33.4485 26.4887 33.6017 26.5919 33.7439 26.5925C33.7575 26.577 33.7237 26.4491 33.7062 26.3166C33.7023 26.2874 33.6991 26.2582 33.6971 26.2303C33.7913 26.1764 33.886 26.1303 33.9802 26.0933C34.0003 26.1173 34.0159 26.1407 34.0308 26.1595C34.0445 26.1777 34.0561 26.19 34.0691 26.1946C34.1198 26.2114 34.2431 26.1387 34.3418 26.2153C34.4067 26.266 34.384 26.4095 34.3496 26.4757C34.4639 26.514 34.5963 26.4653 34.6911 26.5633C34.6749 26.7172 34.5476 26.8322 34.4178 26.8971Z" fill="white"/>
<path d="M34.4178 26.8973C34.4022 26.9278 34.6509 27.1492 34.658 27.3122V27.3226C34.6573 27.3726 34.6314 27.4167 34.5645 27.4479C34.5294 27.4641 34.4989 27.4628 34.4704 27.4518C34.4671 27.4511 34.4645 27.4498 34.4613 27.4485C34.3924 27.4174 34.3347 27.3343 34.2665 27.3057C34.2503 27.3096 34.2704 27.4479 34.2386 27.5751V27.5758C34.2217 27.6452 34.1886 27.7121 34.125 27.7491C34.0964 27.766 33.9802 27.7829 33.949 27.7706C33.9276 27.7608 33.912 27.7439 33.899 27.7232C33.8945 27.716 33.8912 27.7089 33.8873 27.7004C33.8347 27.5771 33.8795 27.3479 33.8393 27.2856C33.8166 27.2512 33.8029 27.2817 33.7874 27.2914C33.7004 27.3492 33.5582 27.444 33.4673 27.333C33.3329 27.1687 33.4348 27.0343 33.5958 26.9466C33.442 26.872 33.327 26.7785 33.3186 26.5986C33.4485 26.4889 33.6017 26.5921 33.7439 26.5928C33.7575 26.5772 33.7237 26.4493 33.7062 26.3168C33.7023 26.2876 33.6991 26.2584 33.6971 26.2305C33.6887 26.1156 33.7036 26.0156 33.7841 26.0052C33.8796 25.9916 33.938 26.0416 33.9802 26.0935C34.0003 26.1175 34.0159 26.1409 34.0308 26.1597C34.0445 26.1779 34.0562 26.1903 34.0691 26.1948C34.1198 26.2117 34.2431 26.139 34.3418 26.2156C34.4067 26.2662 34.384 26.4097 34.3496 26.4759C34.4639 26.5142 34.5963 26.4655 34.6911 26.5636C34.6749 26.7174 34.5476 26.8324 34.4178 26.8973Z" fill="white"/>
</svg>
