<svg width="70" height="48" viewBox="0 0 70 48" fill="none" xmlns="http://www.w3.org/2000/svg">
<path d="M69.601 25.0444C68.0992 22.7034 65.9305 21.486 63.7783 19.8883C60.3941 17.377 57.298 14.469 53.7768 12.1402C52.3832 11.2185 51.4352 10.778 50.266 9.49431C49.634 8.80099 49.1688 8.26365 48.9392 7.33272C48.5481 5.75232 48.4205 3.96189 48.2887 2.34988C48.2445 1.80642 48.1456 1.26908 48.0149 0.745009C47.9892 0.641008 48.0273 0.512538 47.9871 0.386106C47.8801 0.0537121 46.5503 -0.153271 46.2847 0.141387L44.6348 2.31827C44.1953 1.94205 43.6209 1.52603 42.9972 1.68509C42.8974 1.71058 42.2273 2.03481 42.1501 2.10006C41.6982 2.47631 41.6344 3.49388 41.479 4.04344C41.058 5.5229 40.4528 6.25805 39.3237 7.2593C37.0706 9.25775 34.6703 10.259 31.8738 11.246C30.4915 11.7334 29.0885 11.7099 27.6548 11.8109C26.7655 11.8741 25.9812 12.0393 25.0342 12.0841C23.2371 12.1688 21.2063 12.2269 19.4082 12.1443C18.4993 12.1025 17.5915 11.9169 16.6837 11.8639C14.058 11.7109 11.4302 11.8588 8.83541 12.1483C7.5519 12.2921 5.6776 12.5511 4.57215 13.222C4.31895 13.376 4.12234 13.6044 3.89487 13.7644C3.61285 13.9622 2.81207 14.3497 2.74105 14.6638C2.64946 15.0665 2.64431 15.6314 2.79766 16.0188C2.99118 16.5082 3.27627 16.5806 3.79091 16.4756C4.72447 16.287 5.80933 15.715 6.75317 15.4376C9.21007 14.7137 11.8954 13.8389 14.4542 13.6319C15.5628 13.5422 16.7886 14.0091 17.8673 14.2222C19.6284 14.5689 21.4657 14.8982 23.2546 15.0104C24.5216 15.0889 25.4017 14.8462 26.5967 14.7351C27.0382 14.6943 27.5292 14.728 27.9872 14.679C28.3732 14.6383 28.8106 14.4945 29.176 14.471C29.2769 14.4649 29.3376 14.4404 29.4076 14.5414C28.6202 14.9676 27.8688 15.302 26.9693 15.4356C24.9066 15.7425 22.7101 15.9617 20.6382 15.9464C18.9059 15.9332 17.1808 15.873 15.4537 15.7853C14.7507 15.7496 13.9025 15.5294 13.2222 15.5131C11.9963 15.4825 10.0592 16.0249 8.81071 16.3176C7.13403 16.7101 5.55614 17.3953 3.99062 18.108C3.1538 18.4893 1.00877 19.8026 0.849257 20.7345C0.779245 21.1393 0.785432 21.8041 1.22596 21.9896C2.09467 22.3567 2.98808 21.6736 3.74975 21.3453C5.76919 20.4776 7.69808 19.4182 9.8472 18.889C12.0293 18.3517 14.3966 18.2232 16.6281 18.1029C18.0845 18.0234 19.0448 18.1019 20.4663 18.1579C22.4363 18.2354 24.3291 18.0662 26.3177 18.3201C26.5627 18.3517 27.1669 18.2456 27.1092 18.6718C27.0722 18.94 26.2457 19.3152 25.9925 19.4335C22.4764 21.0843 18.9543 20.8263 15.2345 21.1903C14.0281 21.3086 13.0554 21.7052 11.9459 21.851C8.65425 22.2833 5.13 22.3129 2.28817 24.2563C1.42047 24.8497 -0.110051 26.321 0.00626755 27.4466C0.0638866 28.0084 0.191517 28.4224 0.822476 28.5131C1.61605 28.6273 1.58929 28.2735 2.09056 27.8667C3.93707 26.3709 5.74551 25.1739 8.10872 24.6141C9.138 24.3705 10.3299 24.3419 11.3829 24.2175C11.8975 24.1563 12.4523 23.9891 12.9505 23.9494C15.5144 23.7465 18.0392 24.0187 20.5641 23.3254C21.2825 23.1286 21.8465 22.8023 22.6597 22.9644C22.8244 23.2632 22.812 23.3325 22.6113 23.5884C22.2963 23.9902 21.2568 24.9323 20.8317 25.3003C18.9265 26.9552 16.6301 26.9093 14.2391 27.2111C13.6308 27.2886 13.0472 27.4885 12.442 27.5833C11.491 27.7321 10.4967 27.6883 9.56827 27.827C8.45871 27.9911 7.08358 28.2786 5.98019 28.5203C4.9427 28.7487 4.20263 29.2157 3.26805 29.6408C2.71738 29.8917 2.49301 29.857 1.9794 30.2944C1.31448 30.8603 0.997463 31.5394 0.94497 32.4152C0.880115 33.4899 1.24141 33.5388 2.15437 33.1718C2.78428 32.9179 3.43273 32.5681 4.06678 32.3081C6.77892 31.1968 9.80501 30.4912 12.6551 29.7805C13.4095 29.5929 14.62 29.1137 15.3456 29.131C15.9766 29.1463 16.6322 29.6602 16.2339 30.2903C16.1186 30.4718 14.8948 31.3752 14.6436 31.5292C14.376 31.6943 13.9695 31.8881 13.6596 31.9339C12.1878 32.1511 10.6974 32.2357 9.22447 32.4509C8.08815 32.6181 6.89932 33.0729 5.8052 33.4226C4.74298 33.7611 3.71783 34.1649 2.73588 34.6859C2.07716 35.0356 1.77249 35.3731 1.68602 36.1286C1.62222 36.6976 1.64692 37.3277 2.24594 37.5857C2.84086 37.8426 2.90778 37.5642 3.37814 37.3634C4.03896 37.0799 4.73476 37.082 5.41509 36.8984C6.46907 36.6119 7.52717 36.1562 8.63159 35.8911C9.07109 35.785 9.57542 35.7106 10.0252 35.6453C9.81732 35.8594 9.51059 35.9573 9.27488 36.1429C8.99183 36.3652 7.8905 37.551 7.82155 37.8477C7.58894 38.8469 8.12312 39.2221 8.80552 39.7493C9.63616 40.3906 9.97068 40.4875 10.9001 40.8749C11.5578 41.1502 12.0879 41.5254 12.7971 41.7549C14.1619 42.1974 14.9575 42.3972 16.2246 43.1589C16.7042 43.4474 17.12 43.9052 17.6182 44.1509C18.0289 44.3528 18.4982 44.4232 18.911 44.5802C20.4724 45.1747 21.1754 45.4591 22.8562 45.7487C23.7867 45.9098 24.3754 46.1861 25.2318 46.4298C26.5204 46.7979 27.8287 46.7693 29.1183 47.0487C29.8224 47.2016 30.5532 47.2873 31.25 47.4759C31.6596 47.5871 32.2237 47.8725 32.6241 47.9347C33.1459 48.0153 33.8489 47.9582 34.3893 48C34.943 47.9154 35.3352 47.0344 35.3681 46.5399C35.4474 45.3327 35.0377 43.8094 34.976 42.5706C34.7372 37.8059 35.1047 33.6877 37.4751 29.4838C37.928 28.6793 38.5043 27.9727 39.3041 27.4884C39.9793 27.9452 40.496 28.6263 41.2196 29.0484C42.4321 29.7561 44.3959 29.8682 45.8112 29.962C48.6438 30.1476 51.6297 30.0201 54.4365 29.6235C55.8631 29.4216 57.2228 28.8731 58.6494 29.4379C58.848 29.5175 59.058 29.7204 59.2598 29.8264C60.1717 30.3077 61.1999 30.8807 62.1283 31.2875C63.7001 31.9758 65.2285 31.311 66.5316 30.4045C67.143 29.9804 67.8306 29.3237 68.3699 28.8048C69.4609 27.7566 70.6333 26.6534 69.601 25.0444ZM49.5578 14.2855C49.9479 13.6166 51.2273 13.6268 52.4161 14.3059C52.3708 14.3365 52.3245 14.3701 52.2803 14.4048C52.0734 14.5628 51.8902 14.7433 51.85 14.7351C51.7131 14.4965 51.7378 14.1397 51.4249 14.0275C51.1295 14.2161 51.0832 14.4996 51.1069 14.83C50.8012 14.6444 50.4749 14.6036 50.3277 14.988C50.2289 15.248 50.5274 15.3948 50.7106 15.4845C50.7425 15.5009 50.8074 15.4937 50.7714 15.5651C50.7055 15.6936 50.2742 15.8404 50.1157 16.0484C49.5269 15.4468 49.282 14.7596 49.5578 14.2855ZM51.005 16.7275C50.8887 16.6602 50.7765 16.5898 50.6705 16.5164C50.9165 16.4461 51.1326 16.2778 51.1542 16.3013C51.1728 16.444 51.0884 16.6204 51.1038 16.7662C51.1048 16.7723 51.1048 16.7774 51.1069 16.7835C51.0729 16.7652 51.0389 16.7468 51.005 16.7275ZM53.8633 16.7478C53.5288 17.3229 52.5355 17.3963 51.5083 16.9732C51.5145 16.9711 51.5206 16.9681 51.5258 16.964C51.7955 16.7948 51.9272 16.1636 51.9931 16.1595C52.2298 16.3145 52.5489 16.4165 52.8247 16.2951C52.8989 16.0413 52.6868 15.8659 52.6405 15.6375C52.7856 15.6314 53.0512 15.5304 53.0728 15.3734C53.1068 15.1328 52.8628 14.9972 52.8422 14.8952C52.8371 14.8697 52.8464 14.8371 52.8639 14.7973C52.8814 14.7545 52.9061 14.7035 52.9267 14.6474C53.781 15.3142 54.1927 16.182 53.8633 16.7478Z" fill="#583F27"/>
</svg>
