<svg width="49" height="48" viewBox="0 0 49 48" fill="none" xmlns="http://www.w3.org/2000/svg">
<path d="M48.5189 27.0701C47.2919 21.5783 42.9899 15.936 43.6526 10.2412C43.9537 7.64373 45.4212 5.19097 46.9056 3.09908C47.4737 2.29841 48.5662 1.58236 47.8524 0.477178C47.6744 0.202771 47.3279 -0.0622187 46.9814 0.0129423C43.2342 0.898184 39.7482 2.55214 36.374 4.33954C27.9764 8.78641 30.0459 15.7988 33.5603 22.7981C34.8592 25.3842 37.7279 32.267 32.6344 32.562C31.4528 32.6297 30.8564 32.4098 30.0725 31.5471C28.3362 29.6338 26.988 26.8897 25.5565 24.7415C23.9962 22.3977 21.7108 20.2419 19.9991 17.9527C17.1153 14.096 15.7273 11.2673 14.3754 6.6513C13.9456 5.18909 13.8168 1.85859 11.5067 2.59161C10.6603 4.64776 9.30651 6.39571 8.15525 8.26579C6.26554 11.3331 4.46672 14.3685 2.41796 17.3174C1.84991 18.1369 0.227165 20.8152 0.0473023 21.6741C-0.37116 23.657 2.0847 25.6004 3.55405 26.5458C7.39406 29.0136 12.5046 31.4775 16.6665 33.4642C17.2686 33.7518 20.5822 35.0693 20.7508 35.4095C21.1996 36.3097 19.1319 36.4394 18.5998 36.4263C15.4907 36.3511 12.5368 35.1539 9.47693 34.8024C9.02251 34.7498 8.50937 34.8381 8.04543 34.7986C7.58911 34.7591 7.04191 34.5261 6.61019 34.5167C6.32428 34.5092 5.22224 34.6765 4.98177 34.8118C4.10885 35.3023 4.74887 37.1085 4.9477 37.8735C5.30556 39.2361 6.29964 42.232 7.2218 43.2432C8.13067 44.2393 10.2609 44.3258 11.5276 44.2581C14.5231 44.0965 17.5395 43.8672 20.5406 43.745C22.3338 43.6736 24.8578 43.5853 26.2325 44.8163C26.9615 45.4685 28.3191 47.7371 29.014 47.9551C30.544 48.4306 31.2711 44.9723 31.5078 44.9723C32.428 45.6001 32.8238 47.9682 34.2287 47.6769C35.2948 47.4551 35.6829 45.7561 36.3324 44.9799C37.5726 43.5007 38.5497 44.0063 40.1667 43.5984C47.9092 41.6456 50.0981 34.1446 48.5189 27.0701ZM33.8671 11.6621C33.2857 10.6621 34.2514 9.027 36.0256 8.01021C36.0256 8.01021 36.0275 8.01021 36.0275 8.00833C36.0332 8.08913 36.0427 8.17371 36.0541 8.25827C36.1051 8.64168 36.2036 9.01194 36.1638 9.05705C35.7492 9.05517 35.3023 8.75635 34.9236 9.07399C34.9482 9.5946 35.2834 9.86526 35.7322 10.0814C35.2625 10.3351 34.9653 10.7242 35.3572 11.1997C35.6223 11.5211 36.037 11.2467 36.2907 11.0794C36.3362 11.0512 36.3759 10.9629 36.4422 11.0625C36.5596 11.243 36.4289 11.9064 36.5823 12.2635C35.3572 12.5699 34.2798 12.3706 33.8671 11.6621ZM38.1312 11.632C37.957 11.7316 37.7828 11.8218 37.6067 11.9008C37.6995 11.5324 37.6408 11.132 37.6881 11.1208C37.8869 11.2035 38.0554 11.444 38.2562 11.5343C38.2656 11.538 38.2732 11.5418 38.2827 11.5437C38.2335 11.5737 38.1823 11.6019 38.1312 11.632ZM38.8299 11.1696V11.1396C38.8091 10.6678 38.0839 10.0269 38.1293 9.93858C38.508 9.75063 38.8791 9.41796 38.9265 8.9725C38.65 8.68869 38.2637 8.82965 37.9305 8.71875C38.0308 8.52707 38.0971 8.11167 37.9077 7.96511C37.6199 7.74329 37.2602 7.95381 37.1125 7.90494C37.0746 7.89177 37.0405 7.85608 37.0008 7.80345C36.9572 7.74894 36.9118 7.6813 36.8531 7.61174C38.3584 7.01408 39.8012 7.13435 40.2917 7.98012C40.7915 8.83907 40.1478 10.1679 38.8299 11.1696Z" fill="#583F27"/>
</svg>
